HIERARCHY
ROOT Hips
{
	OFFSET 0.0000 0.0000 0.0000
	CHANNELS 6 Xposition Yposition Zposition Zrotation Xrotation Yrotation
	JOINT Ab
	{
		OFFSET -0.0000 8.1305 -0.0000
		CHANNELS 3 Zrotation Xrotation Yrotation
		JOINT Chest
		{
			OFFSET -0.0000 26.2902 -0.0000
			CHANNELS 3 Zrotation Xrotation Yrotation
			JOINT Neck
			{
				OFFSET -0.0000 26.2902 0.0000
				CHANNELS 3 Zrotation Xrotation Yrotation
				JOINT Head
				{
					OFFSET -0.0000 10.8167 0.0000
					CHANNELS 3 Zrotation Xrotation Yrotation
					End Site
					{
						OFFSET -0.0000 16.7167 0.0000
					}
				}
			}
			JOINT LeftCollar
			{
				OFFSET -0.0000 26.2902 0.0000
				CHANNELS 3 Zrotation Xrotation Yrotation
				JOINT LeftShoulder
				{
					OFFSET 19.6667 -0.0000 0.0000
					CHANNELS 3 Zrotation Xrotation Yrotation
					JOINT LeftElbow
					{
						OFFSET 27.2190 0.0000 0.0000
						CHANNELS 3 Zrotation Xrotation Yrotation
						JOINT LeftWrist
						{
							OFFSET 30.7431 0.0000 0.0000
							CHANNELS 3 Zrotation Xrotation Yrotation
							End Site
							{
								OFFSET 0.0000 -14.7500 0.0000
							}
						}
					}
				}
			}
			JOINT RightCollar
			{
				OFFSET -0.0000 26.2902 0.0000
				CHANNELS 3 Zrotation Xrotation Yrotation
				JOINT RightShoulder
				{
					OFFSET -19.6667 0.0000 0.0000
					CHANNELS 3 Zrotation Xrotation Yrotation
					JOINT RightElbow
					{
						OFFSET -27.2190 0.0000 0.0000
						CHANNELS 3 Zrotation Xrotation Yrotation
						JOINT RightWrist
						{
							OFFSET -30.7431 0.0000 0.0000
							CHANNELS 3 Zrotation Xrotation Yrotation
							End Site
							{
								OFFSET -0.0000 -14.7500 0.0000
							}
						}
					}
				}
			}
		}
	}
	JOINT LeftHip
	{
		OFFSET 11.8000 0.0000 0.0000
		CHANNELS 3 Zrotation Xrotation Yrotation
		JOINT LeftKnee
		{
			OFFSET -0.0000 -39.7832 0.0000
			CHANNELS 3 Zrotation Xrotation Yrotation
			JOINT LeftAnkle
			{
				OFFSET -0.0000 -41.7317 0.0000
				CHANNELS 3 Zrotation Xrotation Yrotation
				End Site
				{
					OFFSET -0.0000 -4.9167 16.7167
				}
			}
		}
	}
	JOINT RightHip
	{
		OFFSET -11.8000 0.0000 0.0000
		CHANNELS 3 Zrotation Xrotation Yrotation
		JOINT RightKnee
		{
			OFFSET -0.0000 -39.7832 0.0000
			CHANNELS 3 Zrotation Xrotation Yrotation
			JOINT RightAnkle
			{
				OFFSET -0.0000 -41.7317 0.0000
				CHANNELS 3 Zrotation Xrotation Yrotation
				End Site
				{
					OFFSET -0.0000 -4.9167 16.7167
				}
			}
		}
	}
}
MOTION
Frames: 15
Frame Time: 0.010000
-18.7134 96.7701 174.0905 357.9058 356.6473 180.3697 357.0245 348.0761 359.8931 2.4688 11.0637 359.9630 355.9554 358.1915 0.0006 2.5751 4.7769 359.9589 340.0445 357.3850 14.8844 321.8922 61.3925 335.4082 8.6881 357.3702 326.1654 90.6503 355.5229 347.3640 26.0848 355.8327 342.2498 45.9260 50.1459 4.8478 340.8360 354.4695 32.0707 270.1774 353.6617 9.8393 355.3769 1.9232 359.8509 358.1007 6.5238 4.5627 354.6997 352.3032 12.9266 357.1713 4.1809 11.0301 6.8729 7.5679 12.0424 347.9532 344.0609 308.8088 
-18.7521 96.7642 174.0847 357.9148 356.6029 180.3635 357.0124 348.0922 359.8947 2.4427 11.0810 359.9664 355.9893 358.2021 0.0109 2.5486 4.8728 359.9654 340.0761 357.3917 14.8734 321.8752 61.4108 335.3714 8.7702 357.3524 326.2077 90.6589 355.5232 347.3973 26.0677 355.8595 342.2256 45.9297 50.2045 4.9197 340.8547 354.4465 32.0830 270.2013 353.7126 9.7243 355.3599 1.8750 359.8318 358.0982 6.5419 4.5728 354.7490 352.2888 12.9490 357.1512 4.1021 10.9884 6.8887 7.6400 12.0677 347.9862 343.9596 308.7954 
-18.7958 96.7584 174.0748 357.9237 356.5673 180.3567 356.9967 348.1084 359.8961 2.4327 11.1248 359.9669 356.0228 358.1984 0.0097 2.4885 4.9703 359.9646 340.0994 357.3638 14.8565 321.7535 61.3955 335.4884 8.8196 357.2962 326.1735 90.8517 355.5373 347.4624 26.0290 355.8362 342.2261 45.9618 50.2759 4.9500 340.7854 354.4075 32.0626 270.4020 353.6685 9.8521 355.3371 1.8382 359.8028 358.0991 6.5622 4.5853 354.7675 352.2670 12.9534 357.1246 4.0541 11.0479 6.9146 7.6624 11.9930 348.0050 343.9215 308.7956 
-18.8370 96.7529 174.0653 357.9304 356.5248 180.3389 356.9807 348.1074 359.9019 2.4089 11.1917 359.9809 356.1268 358.1334 359.9931 2.3158 5.1393 359.9538 340.1164 357.3699 14.8422 321.7342 61.3533 335.5127 8.7718 357.3120 326.1488 91.0439 355.5273 347.5451 26.0189 355.8732 342.2565 45.9925 50.2343 4.9302 340.8393 354.4281 32.1420 270.4155 353.7046 9.8705 355.3228 1.7963 359.7690 358.0800 6.5768 4.6079 354.5535 352.2276 12.9707 357.1016 3.9766 11.0370 6.9310 7.7387 12.0036 348.0014 343.9147 308.8098 
-18.8819 96.7492 174.0561 357.9327 356.4748 180.3211 356.9522 348.1056 359.9166 2.4059 11.2434 359.9917 356.1435 358.1399 359.9907 2.2880 5.2175 359.9497 340.1125 357.3716 14.8558 321.8923 61.3787 335.3483 8.7685 357.3392 326.1766 91.0489 355.5290 347.5867 25.9884 355.8772 342.2848 46.0362 50.2181 4.9225 340.7839 354.4100 32.1784 270.4688 353.7140 9.8359 355.2748 1.7028 359.7451 358.1154 6.6752 4.6703 354.8071 352.1860 12.9306 357.0645 3.8920 11.0332 6.9599 7.8101 12.0203 347.9990 343.8889 308.8004 
-18.9272 96.7461 174.0457 357.9397 356.4212 180.2984 356.9338 348.0948 359.9238 2.3826 11.3067 0.0043 356.1743 358.1337 359.9817 2.2687 5.3054 359.9408 340.1135 357.3760 14.8645 322.0030 61.3571 335.2241 8.7487 357.3378 326.1933 90.9850 355.5238 347.5180 25.9816 355.8902 342.3101 46.0541 50.1644 4.9302 340.8110 354.4186 32.2163 270.5086 353.7000 9.9023 355.1744 1.4760 359.7530 358.2623 7.0230 4.7975 354.7526 352.0127 12.7635 357.0331 3.7986 10.9819 6.9797 7.8965 12.0688 348.0272 343.7922 308.7879 
-18.9733 96.7401 174.0449 357.9455 356.3529 180.2869 356.9136 348.0921 359.9235 2.3573 11.3575 0.0117 356.2165 358.1020 359.9644 2.2221 5.4179 359.9225 340.1341 357.3856 14.8452 321.9394 61.3053 335.2697 8.7643 357.3323 326.1726 90.8553 355.5295 347.4045 25.9656 355.8796 342.3096 46.0312 50.2023 4.9997 340.7974 354.4068 32.2218 270.5692 353.7272 9.9005 355.1528 1.4101 359.6871 358.2507 7.0249 4.8050 354.7798 351.9930 12.8025 356.9983 3.6730 10.9160 7.0124 8.0090 12.1239 348.0280 343.7391 308.7812 
-19.0182 96.7361 174.0423 357.9485 356.2958 180.2680 356.8824 348.1021 359.9305 2.3478 11.4106 0.0191 356.2628 358.0555 359.9495 2.1470 5.5612 359.9072 340.1356 357.3867 14.8396 321.9760 61.2766 335.2402 8.7838 357.3237 326.1715 90.5964 355.5054 347.2416 25.9528 355.8962 342.3196 45.9916 50.1928 5.0651 340.8330 354.4195 32.2746 270.5496 353.7449 9.8575 355.1280 1.3576 359.6228 358.2396 7.0206 4.8677 354.8165 351.9932 12.8012 356.9587 3.5583 10.8527 7.0467 8.1198 12.1814 348.0311 343.6854 308.7852 
-19.0647 96.7312 174.0386 357.9574 356.2358 180.2514 356.8385 348.1411 359.9576 2.3669 11.4081 0.0453 356.7224 357.7273 359.9525 1.3649 6.2664 359.9449 340.1120 357.3800 14.8228 322.0317 61.2827 335.2160 8.7851 357.3303 326.2014 90.3216 355.4383 347.0769 25.9190 355.9036 342.2867 45.9546 50.2928 5.1525 340.7502 354.4079 32.2551 270.5414 353.7274 9.7204 355.1071 1.3038 359.5499 358.2280 7.0202 4.8935 354.7014 351.9644 12.8405 356.9261 3.4414 10.8062 7.0797 8.2286 12.2249 348.0245 343.6431 308.7755 
-19.1128 96.7243 174.0417 357.9693 356.1672 180.2398 356.7990 348.1638 359.9680 2.3776 11.4426 0.0599 357.4057 357.2027 359.9818 0.2402 7.2660 0.0319 340.1055 357.3826 14.8287 322.1878 61.3015 335.0503 8.7741 357.3292 326.1855 90.3948 355.4125 347.1264 25.9003 355.8921 342.2522 45.8711 50.3837 5.2511 340.7196 354.3974 32.2706 270.5274 353.7332 9.6287 355.0896 1.2354 359.4700 358.2122 7.0214 4.9131 354.7690 351.9539 12.8892 356.8919 3.2982 10.7499 7.1249 8.3667 12.2692 348.0366 343.5786 308.7723 
-19.1601 96.7164 174.0442 357.9826 356.0963 180.2256 356.7670 348.1764 359.9778 2.3759 11.4935 0.0707 356.9128 357.5763 359.8868 1.1270 6.6554 359.8858 340.1062 357.3793 14.8456 322.3919 61.3408 334.8290 8.7840 357.3237 326.1956 90.5331 355.3839 347.2463 25.8842 355.8972 342.2510 45.8398 50.4160 5.2995 340.7307 354.3754 32.3085 270.5390 353.7349 9.6408 355.0719 1.1675 359.3994 358.2011 7.0131 4.9643 354.9974 351.9593 12.8760 356.8590 3.1485 10.6977 7.1720 8.5144 12.3221 348.0379 343.5184 308.7601 
-19.2073 96.7070 174.0538 357.9936 356.0147 180.2108 356.7267 348.1885 359.9883 2.3792 11.5491 0.0843 357.0248 357.4385 359.8468 0.9659 6.9268 359.8573 340.1060 357.3878 14.8342 322.5000 61.3312 334.7296 8.7925 357.3298 326.1464 90.7433 355.4146 347.4078 25.8516 355.9112 342.2734 45.8672 50.4362 5.3424 340.6650 354.3390 32.3349 270.8428 353.5414 9.2352 355.0507 1.0761 359.3522 358.1924 7.0225 4.9999 354.7677 351.9374 12.8841 356.8262 2.9731 10.6283 7.2147 8.6791 12.3785 348.0296 343.4655 308.7580 
-19.2540 96.6952 174.0717 358.0123 355.9181 180.2044 356.6923 348.2009 359.9902 2.3878 11.5949 0.0933 357.4913 357.0516 359.8480 0.1956 7.6479 359.9022 340.1169 357.3952 14.7880 322.4145 61.2504 334.7982 8.7978 357.3199 326.0597 90.9400 355.4763 347.4736 25.8405 355.9133 342.3132 45.8466 50.4031 5.3734 340.6400 354.3410 32.3646 271.1139 353.3473 9.0416 355.0416 0.9613 359.3186 358.1753 7.0358 5.0085 354.9305 351.9624 12.8831 356.8030 2.7694 10.5513 7.2601 8.8575 12.4307 348.0268 343.4080 308.7522 
-19.3022 96.6876 174.0761 358.0304 355.8488 180.1833 356.6605 348.2151 0.0027 2.3970 11.6782 0.1067 357.5047 357.0260 359.7924 0.1865 7.7144 359.8426 340.1057 357.3776 14.8081 322.6085 61.2594 334.5795 8.8118 357.2980 326.0450 91.0464 355.5124 347.5951 25.8098 355.9235 342.3545 45.8471 50.3792 5.4105 340.6573 354.3420 32.4109 270.8213 353.5892 9.5051 355.0320 0.8931 359.2882 358.1558 7.0314 5.0231 355.1665 351.9815 12.8850 356.7808 2.6006 10.5252 7.2997 9.0385 12.4634 348.0335 343.3490 308.7475 
-19.3502 96.6802 174.0850 358.0533 355.7753 180.1653 356.6564 348.2456 0.0096 2.3646 11.7358 0.1123 357.4668 357.0302 359.7462 0.3062 7.7468 359.7930 340.0941 357.3847 14.8399 322.9014 61.2522 334.2983 8.7330 357.3242 326.0256 91.1650 355.5295 347.6513 25.8051 355.9519 342.4123 45.8940 50.3381 5.3995 340.6631 354.3266 32.4680 270.6291 353.7261 9.6878 355.0313 0.8101 359.2396 358.1272 7.0388 5.0790 354.9678 351.9782 12.9020 356.7780 2.3563 10.0380 7.2777 9.4101 12.9570 348.0122 343.2360 308.7013 
